<svg xmlns="http://www.w3.org/2000/svg" viewBox="12.23 142.63 465.6 171.88"><path fill-rule="evenodd" d="M292.5 143.128c-3.417 1.022-6.289 3.26-8.781 6.845-2.397 3.447-2.195 4.494 1.696 8.801 2.711 3.001 3.209 4.147 2.416 5.564-1.246 2.226-.39 4.662 1.638 4.662 2.982 0 1.478 4.008-3.083 8.212-2.537 2.338-7.141 7.783-10.231 12.099-5.248 7.33-5.812 7.808-8.564 7.257-3.802-.76-3.832-.805-2.619-3.994 1.142-3.004 1.377-14.581.395-19.489-.868-4.339-8.453-12.502-13.488-14.517-8.802-3.522-40.418-2.926-47.818.9-3.626 1.875-4.078 5.301-1.061 8.032 1.1.995 2 2.55 2 3.455s.54 2.185 1.2 2.845c.745.745.801 1.2.149 1.2-.602 0-1.31 3.529-1.654 8.25-1.02 13.965-2.725 18.733-4.093 11.444-.661-3.524-5.767-9.107-11.403-12.466-3.097-1.847-3.166-2.003-1.12-2.538 1.413-.37 1.98-1.094 1.61-2.057-.313-.818.078-2.025.87-2.682.793-.658 1.441-2.574 1.441-4.259 0-1.743.912-4.034 2.116-5.316l2.117-2.253-5.867-1.811c-3.918-1.21-9.02-1.812-15.366-1.812-8.19 0-10.258.362-15 2.625-14.3 6.824-22.179 21.903-18.624 35.641.817 3.154 2.274 7.534 3.238 9.734.965 2.2 1.665 4.504 1.556 5.12-.347 1.961 6.365 10.776 10.42 13.685 8.404 6.029 16.193 9.008 24.102 9.217 6.118.162 7.741.566 9.391 2.337 2.609 2.8 3.258 2.712 6.255-.849 1.779-2.114 2.696-4.677 3.132-8.75.903-8.445 2.269-15.309 2.412-12.119.065 1.452 1.008 4.602 2.096 7s1.988 5.287 2 6.42c.028 2.632 3.543 6.439 5.944 6.439 2.434 0 3.513-3.364 5.645-17.592l.613-4.092 4.66 4.686c5.391 5.421 8.224 7.452 18.892 13.546 4.273 2.44 7.318 4.443 6.768 4.45-5.1.068-21.402 3.376-23.429 4.754-1.414.962-3.894 1.748-5.511 1.748-2.299 0-3.523.855-5.613 3.919-2.364 3.465-2.752 5.229-3.349 15.211-.766 12.815-1.789 16.704-5.421 20.62-2.16 2.328-3.358 2.75-7.808 2.75-10.488 0-13.568-6.508-10.791-22.807 3.247-19.06 2.163-23.675-4.957-21.101-3.243 1.173-3.872 1.099-6.374-.751-2.348-1.737-4.714-2.127-15.349-2.537-6.914-.267-13.094-.807-13.731-1.201-.857-.529-.769-1.472.337-3.61.829-1.603 1.496-5.507 1.496-8.753 0-5.359-.769-7.421-8.99-24.109-10.05-20.402-17.171-32.099-19.989-32.836-1.036-.271-2.125-1.123-2.42-1.894-.353-.917-2.108-1.401-5.086-1.401-4.089 0-4.987.457-8.886 4.526-4.489 4.686-9.109 13.18-12.045 22.147-1.777 5.429-2.796 6.696-6.084 7.569-1.1.292-2.757.844-3.682 1.226-1.247.514-2.128-.168-3.401-2.637-2.544-4.93-13.962-21.756-17.748-26.154l-3.292-3.823-5.922 2.839-5.923 2.839-1.182 8.317c-.65 4.574-1.434 8.568-1.742 8.876-.307.308-2.982-1.51-5.943-4.04-8.562-7.315-9.626-7.56-15.742-3.636l-5.179 3.324.541 9.063c.355 5.966-.147 15.046-1.47 26.564-1.474 12.838-1.847 20.563-1.399 29 .335 6.325.991 19.6 1.455 29.5.808 17.202 2.387 27.5 4.216 27.5.467 0 1.52-1.238 2.341-2.75s1.51-2.187 1.532-1.5c.079 2.457 3.04 1.287 3.04-1.2 0-1.348.735-2.862 1.634-3.365 1.043-.584 1.805-2.702 2.108-5.856l.475-4.941 5.926.429c10.395.752 16.908-3.115 21.975-13.047 1.112-2.18 2.198-3.787 2.415-3.571.216.217-.105 3.4-.714 7.075-.932 5.625-.844 7.513.561 11.953 2.461 7.778 2.764 8.099 6.041 6.398 3.093-1.605 7.218-9.516 8.217-15.76.983-6.148 2.025-5.4 2.666 1.914.593 6.755 3.142 15.761 4.742 16.75.473.291 1.489-.672 2.259-2.142.894-1.706 1.656-2.259 2.107-1.53 1.222 1.978 2.588 1.245 2.588-1.388 0-1.393.675-2.791 1.5-3.107 1.088-.418 1.5-2.126 1.501-6.219l.001-5.643 2.2 4.5c1.21 2.475 3.04 5.109 4.066 5.854 1.027.744 1.633 1.963 1.347 2.707-.641 1.67 7.753 9.242 11.207 10.109 1.785.448 2.878.093 3.863-1.254 2.451-3.352 6.06-16.602 8.281-30.401 1.194-7.417 2.334-13.648 2.532-13.847.199-.199 3.206.02 6.682.485l6.32.847.25 4.5c.922 16.566 5.804 40.649 8.695 42.9 1.677 1.306 7.555-1.636 7.555-3.78 0-1.032.675-2.435 1.5-3.12 1.955-1.622 1.881-6.873-.346-24.854-1.319-10.645-1.479-14.468-.622-14.797.635-.243 4.465-.309 8.51-.146l7.355.297-.273 10.087c-.253 9.291-.023 10.739 2.906 18.336 5.101 13.225 9.908 17.179 22.639 18.619 4.941.559 6.844.293 11.152-1.56 2.856-1.229 6.478-3.697 8.047-5.484 6.412-7.303 12.046-30.757 10.746-44.737-.423-4.558-.297-6.683.373-6.269.557.344 1.013 1.724 1.013 3.067s.403 2.441.895 2.441c.518 0 .5 1.576-.044 3.75-.515 2.063-1.205 10.521-1.531 18.797-.552 13.999-.442 15.389 1.581 19.963 2.363 5.341 4.78 8.494 6.504 8.484 1.535-.009 4.595-5.68 4.595-8.516 0-1.298.495-2.666 1.101-3.04.641-.396.85-1.934.5-3.681-.661-3.307-.958-3.411 5.814 2.044 4.576 3.685 24.592 13.369 27.993 13.543 2.212.112 3.168.714 3.427 2.156.599 3.336 2.145 4.21 3.705 2.097 1.263-1.712 1.469-1.737 2.037-.256 1.01 2.63 2.425.932 6.54-7.849l3.856-8.228 3.763.767 9.15 1.868c2.963.606 6.866 1.101 8.673 1.101 3.097 0 3.54.478 7.662 8.25 3.193 6.022 4.901 8.25 6.327 8.25 1.344 0 1.989-.726 2.069-2.332.065-1.282.838-3.052 1.719-3.933 1.469-1.468 1.768-1.451 3.601.208 1.73 1.566 4.05 1.825 17.281 1.933 16.414.133 18.684-.404 23.498-5.559 4.764-5.102 7.547-18.474 4.907-23.579-2.191-4.237-9.22-9.777-16.249-12.808-3.23-1.393-4.749-2.274-3.374-1.957 7.786 1.792 8 1.797 8 .211 0-.861-.527-1.892-1.171-2.29-.778-.48-.452-.989.97-1.515 1.182-.438 2.439-2.043 2.806-3.586.366-1.536 1.821-3.746 3.233-4.911l2.569-2.118-2.204-.699c-2.572-.817-2.704-1.692-.81-5.365 1.355-2.625 3.17-9.607 5.598-21.528 3.023-14.84-2.944-30.03-13.991-35.618-5.795-2.931-8.871-3.242-15.873-1.604-3.645.852-8.727 1.797-11.294 2.099-9.071 1.067-16.365 9.086-19.875 21.849l-1.678 6.102-1.213-7.5c-.667-4.125-2.274-12-3.57-17.5l-2.358-10 2.811-3c3.92-4.185 5.202-7.045 4.469-9.966-.358-1.428.108-4.559 1.083-7.271 1.43-3.98 1.521-5.47.553-9.064-.886-3.286-1.56-4.191-2.857-3.837-6.968 1.902-9.092 1.73-10.8-.877-2.933-4.477-9.704-6.912-14.898-5.357m153.696 2.36c-6.929 5.831-9.291 17.62-9.119 45.512.133 21.626-.297 25.398-3.658 32.107-3.611 7.209-7.092 10.677-15.776 15.718l-8.054 4.675 7.456.674c22.343 2.019 55.745 4.826 57.432 4.826 1.396 0-.047-1.817-5.121-6.448-12.727-11.616-14.147-19.696-8.995-51.182 1.451-8.872 2.632-19.447 2.623-23.5-.041-19.54-7.828-29.921-16.788-22.382M307 174.059c0 .582.45.781 1 .441s1-.816 1-1.059-.45-.441-1-.441-1 .477-1 1.059m-84.211 10.505c-1.487 3.264-.312 4.102 7.045 5.021 12.85 1.605 25.597-2.898 15.416-5.446-2.062-.517-7.696-1.212-12.518-1.546-8.705-.603-8.777-.589-9.943 1.971m-56.949 3.458c-2.013 1.063-4.588 3.114-5.723 4.557-1.879 2.388-1.935 2.872-.626 5.403 2.903 5.615 10.603 10.629 17.654 11.497 3.928.483 3.926.179-.008-1.07-1.129-.359-1.137-.704-.047-2.018 1.105-1.331 1.043-1.737-.387-2.537-.937-.525-1.703-1.444-1.703-2.043s-.653-1.59-1.451-2.201c-.926-.708-1.559-3.37-1.75-7.357-.165-3.436-.749-6.229-1.299-6.206s-2.647.911-4.66 1.975m-55.133 7.281c-.939 1.157-1.707 2.679-1.707 3.381 0 1.454 3.793 2.645 6.84 2.149 1.964-.32 1.937-.475-.691-3.983l-2.735-3.651zm240.839.447c.418.963.803 2.869.857 4.236.077 1.982-.614 2.732-3.403 3.694-1.925.664-2.712 1.233-1.75 1.264 2.168.069 2.301 1.907.196 2.715-1.199.46-.845 1.028 1.549 2.484 3.068 1.866 3.277 3.857.406 3.857-3.304 0-9.179 4.013-10.763 7.351-4.291 9.042 1.059 17.649 10.968 17.649 6.692 0 13.674-7.595 16.365-17.802 1.065-4.041.964-4.518-1.668-7.827-1.542-1.938-4.138-4.887-5.77-6.552-2.866-2.923-2.902-3.076-1.056-4.426 1.837-1.343 1.78-1.532-1.479-4.895-3.655-3.771-5.675-4.564-4.452-1.748m-55.926 5.289c-1.486 1.767-2.546 3.682-2.355 4.256.191.573 2.067 1.638 4.168 2.365l3.82 1.323-.663-4.145c-1.099-6.875-1.88-7.471-4.97-3.799m-240.567 6.707c-1.337 3.715-2.354 7.728-2.26 8.918.094 1.198-1.151 3.578-2.791 5.334-2.56 2.74-3.405 3.077-6.232 2.485-3.064-.641-10.587-7.536-10.892-9.983-.068-.55-.882 3.95-1.808 10s-1.631 11.103-1.566 11.228 3.691.749 8.057 1.386c8.754 1.276 13.584 3.319 18.911 7.996L60 248.207v-3.978c0-10.174 2.814-14.003 8.988-12.233 1.859.534 3.552.798 3.762.587.555-.554-11.497-26.663-13.541-29.337-1.718-2.246-1.733-2.23-4.156 4.5m147.76-.063c.721.289 1.584.253 1.916-.079s-.258-.568-1.312-.525c-1.165.048-1.402.285-.604.604m53.579 4.739c-.3.782-.005 2.432.656 3.668l1.202 2.246 1.34-2.418c.736-1.33 1.355-2.98 1.375-3.668.049-1.728-3.901-1.579-4.573.172m-128.503 13.211c-1.184 1.427-3.02 1.547-14.5.952l-13.144-.682-2.15 7.969-2.15 7.969 3.428 11.329c1.885 6.232 3.955 13.3 4.6 15.707s1.527 3.983 1.959 3.5c.433-.482 1.329-4.897 1.991-9.81 1.59-11.8 2.721-14.189 9.692-20.463l5.885-5.295 6.816.543c3.748.298 6.67.229 6.493-.155-1.598-3.45-6.916-13.197-7.201-13.197-.2 0-.973.735-1.719 1.633m146.874 7.595-3.695 6.265 3.849 4.004c2.117 2.201 4.308 4.903 4.868 6.003 1.804 3.546 2.381 10.87 1.249 15.883-1.257 5.571-1.038 6.086 2.243 5.262 1.652-.414 3.407-2.595 5.797-7.203 4.408-8.503 12.311-17.187 17.107-18.799l3.68-1.237-1.93-4.311c-1.358-3.033-2.374-4.139-3.432-3.733-.826.317-4.839-.76-8.917-2.393S287.454 230 286.583 230c-.87 0-1.583-.354-1.583-.786s-.788-.817-1.75-.855-2.434-.368-3.271-.733c-1.112-.486-2.513 1.019-5.216 5.602M258.5 236c-.34.55-.168 1 .382 1s1.278-.45 1.618-1 .168-1-.382-1-1.278.45-1.618 1m-182.342 5c0 1.375.227 1.938.504 1.25.278-.687.278-1.812 0-2.5-.277-.687-.504-.125-.504 1.25m244.509-.333c-.367.366-.667 2.354-.667 4.416s-.457 3.903-1.015 4.089c-.567.189.767 4.7 3.023 10.223 2.22 5.437 5.206 13.985 6.634 18.995s2.946 9.757 3.373 10.549c.609 1.129 3.806 1.486 14.875 1.662 7.755.124 14.303-.105 14.553-.508.249-.403-2.578-1.709-6.282-2.902-13.803-4.445-18.617-9.482-22.685-23.734-.936-3.276-2.516-7.307-3.512-8.957s-2.778-5.588-3.959-8.75c-2.069-5.537-2.905-6.517-4.338-5.083M408 250.355c0 2.801.405 3.647 1.75 3.656.962.006 14.778 1.131 30.701 2.5 37.006 3.182 36.337 3.184 37.165-.118.39-1.554.194-2.892-.485-3.312-.627-.388-13.626-1.718-28.886-2.956s-30.557-2.512-33.995-2.832l-6.25-.582zm-1.361 8.752c-.259 1.316-1.158 6.919-1.997 12.451-1.867 12.3-4.682 20.104-9.208 25.521-8.328 9.968-2.687 13.15 28.101 15.851 17.349 1.522 18.383 1.471 17.77-.872-.633-2.418 4.225-17.256 6.616-20.209 1.181-1.458 2.353-1.958 3.531-1.506 2.335.896 1.786 4.704-2.223 15.407L446.14 314h2.598c1.429 0 5.446-.496 8.927-1.102 9.749-1.698 11.305-4.167 15.369-24.398 2.636-13.123 4.11-24.77 3.232-25.539-.663-.58-33.495-3.626-60.461-5.608-8.595-.632-8.7-.612-9.166 1.754m-377.442 4.128.303 5.265 5.569-.017c6.21-.018 10.931-2.344 10.931-5.385 0-2.3-3.59-3.739-11.303-4.532l-5.803-.596zm217.155-4.543c-1.956.383-3.303 2.827-3.338 6.058-.02 1.79 17.945 1.732 20.404-.066 3.015-2.205 1.588-5.06-2.929-5.861-4.267-.757-10.633-.816-14.137-.131m58.761 11.96c-1.809 3.969-1.33 5.085 2.489 5.801 1.981.372 3.846.432 4.144.134 1.026-1.026-2.259-7.898-3.889-8.137-.91-.134-2.124.84-2.744 2.202m-31.857 11.881-2.189 1.534 2.716 3.818 2.717 3.819 1.25-2.967c1.565-3.714 1.632-3.404-.88-4.061q-2.133-.556-1.531-2.116c.739-1.927.632-1.928-2.083-.027"/></svg>