<?xml version="1.0" standalone="no"?>
<!DOCTYPE svg PUBLIC "-//W3C//DTD SVG 20010904//EN"
 "http://www.w3.org/TR/2001/REC-SVG-20010904/DTD/svg10.dtd">
<svg version="1.0" xmlns="http://www.w3.org/2000/svg"
 width="512.000000pt" height="512.000000pt" viewBox="0 0 512.000000 512.000000"
 preserveAspectRatio="xMidYMid meet">

<g transform="translate(0.000000,512.000000) scale(0.100000,-0.100000)"
fill="#000000" stroke="none">
<path d="M3115 4234 c-196 -100 -507 -277 -1195 -682 -536 -316 -1222 -718
-1268 -743 l-29 -17 -8 -377 c-7 -361 -7 -378 11 -395 11 -10 161 -100 334
-200 l315 -182 90 46 c50 25 173 95 275 156 102 60 188 110 193 110 4 0 7
-136 7 -302 0 -167 3 -312 6 -323 4 -13 110 -80 327 -205 488 -281 476 -275
494 -258 8 9 74 215 147 459 129 430 134 444 157 442 13 -1 88 -6 166 -13 245
-19 524 12 734 81 332 110 573 318 619 535 7 32 10 209 8 499 l-3 450 -33 67
c-62 126 -225 274 -462 420 -98 60 -164 97 -525 290 -173 93 -262 145 -270
158 -10 16 -37 11 -90 -16z m139 -103 c44 -27 188 -106 319 -175 394 -210 567
-320 690 -440 144 -141 190 -259 156 -405 -36 -158 -201 -325 -413 -421 -292
-131 -687 -177 -1034 -121 -53 8 -54 8 -73 -23 -26 -42 -104 -287 -192 -601
-58 -207 -76 -260 -89 -259 -9 1 -169 90 -356 198 -337 195 -340 197 -332 224
4 15 47 153 95 307 125 403 141 479 109 506 -21 17 -76 -10 -300 -154 -178
-114 -417 -255 -504 -297 l-46 -22 -229 133 c-127 73 -252 145 -279 160 l-48
27 118 69 c66 39 151 88 189 110 39 22 221 128 405 235 184 107 574 334 865
503 292 170 602 350 690 402 88 51 164 93 169 93 4 0 45 -22 90 -49z"/>
<path d="M2935 3405 c-269 -157 -266 -144 -66 -261 227 -132 361 -174 491
-153 153 24 250 104 250 205 0 72 -32 108 -181 199 -167 102 -231 135 -261
134 -13 0 -117 -56 -233 -124z"/>
</g>
</svg>
